<svg id="BNK" xmlns="http://www.w3.org/2000/svg" width="40" height="40" viewBox="0 0 40 40">
  <g id="Layer_1" data-name="Layer 1">
    <g id="BNK-2" data-name="BNK">
      <path id="Path_4341" data-name="Path 4341" d="M20,0A20,20,0,1,1,0,20,20,20,0,0,1,20,0Z" fill="#16abad"/>
      <g id="Group_1570" data-name="Group 1570">
        <path id="Path_4492" data-name="Path 4492" d="M13.24,18.06l1.16-2.41v-.07a.07.07,0,0,1,.07.06h0l.8,1.29V17l-2,1.19h-.06Z" fill="#fff"/>
        <path id="Path_4493" data-name="Path 4493" d="M17.63,26.73l-.73-2.36v-.06H17l.73.11a.06.06,0,0,1,.06,0h0v2.3s0,.06-.05.07h0c-.06-.05-.06-.05-.06-.12Z" fill="#fff"/>
        <path id="Path_4494" data-name="Path 4494" d="M17.69,24.2,17,24.09c-.06,0-.06,0-.06-.07V24l.73-1.65a.07.07,0,0,1,.05-.07h0a.06.06,0,0,1,.06.06h0V24.1c0,.07,0,.07-.06.13Z" fill="#fff"/>
        <path id="Path_4495" data-name="Path 4495" d="M13.31,31.51l2.13-1.12h.06l1.95,1.35s.07.07,0,.07a.06.06,0,0,1-.05.06h0l-4.08-.24c-.06,0-.06,0-.06-.06a.05.05,0,0,1,.05-.06Z" fill="#fff"/>
        <path id="Path_4496" data-name="Path 4496" d="M13.19,30.91V28.14h.06l2,.54a.06.06,0,0,1,.06.06h0v.06L13.37,31a.22.22,0,0,1-.18-.09Z" fill="#fff"/>
        <path id="Path_4497" data-name="Path 4497" d="M13.19,27.85v-.24l1-2.11.06-.07a.07.07,0,0,1,.07.06h0l1,2.82v.06h-.06l-2-.53C13.19,27.91,13.19,27.91,13.19,27.85Z" fill="#fff"/>
        <path id="Path_4498" data-name="Path 4498" d="M13.19,26.85v-2a.06.06,0,0,1,.05-.06h.07l.68.47s.06.06,0,.06l-.68,1.54c0,.05-.06.05-.12,0Z" fill="#fff"/>
        <path id="Path_4499" data-name="Path 4499" d="M13.19,24.49v-.35l1.89-1.47h.06c.07,0,.07.06,0,.06l-1,2.35-.06.07H14l-.8-.66Z" fill="#fff"/>
        <path id="Path_4500" data-name="Path 4500" d="M13.19,23.73v-.19h0l1-2.42a.06.06,0,0,1,.06-.06h.07l1,1v.11l-2.07,1.61h-.06c-.06.05-.06.05-.06,0Z" fill="#fff"/>
        <path id="Path_4501" data-name="Path 4501" d="M13.19,22.72v-3.3c0-.07,0-.07.06-.07s.06,0,.06.07l.8,1.47V21l-.8,1.83a.05.05,0,0,1-.05.06h0c-.06-.06-.06-.06-.06-.12Z" fill="#fff"/>
        <path id="Path_4502" data-name="Path 4502" d="M13.31,18.71l2.44.71a.06.06,0,0,1,.06.06h0v.06l-1.47,1.19h-.12l-1-1.95v-.06Z" fill="#fff"/>
        <path id="Path_4503" data-name="Path 4503" d="M13.19,17.41V15.3h.06l.91.06a.06.06,0,0,1,.06.05h0v.07l-.91,1.94a.05.05,0,0,1-.05.06h0a.09.09,0,0,1-.06-.07Z" fill="#fff"/>
        <path id="Path_4504" data-name="Path 4504" d="M13.19,15.06v-.3l1.09-1.29s.07-.07.07,0,.06,0,.06,0l-.06,1.65a.06.06,0,0,1-.06.06h-.07l-1-.06Z" fill="#fff"/>
        <path id="Path_4505" data-name="Path 4505" d="M13.19,14.29V12.87h.06l1,.17a.09.09,0,0,1,.07.06h0v.06l-1,1.18s-.06.06-.06,0Z" fill="#fff"/>
        <path id="Path_4506" data-name="Path 4506" d="M13.19,12.58v-.53l.6-.71h.07l.06.06.42,1.36v.06h-.06Z" fill="#fff"/>
        <path id="Path_4507" data-name="Path 4507" d="M13.19,11.64V10.11a.07.07,0,0,1,.05-.07h0a.06.06,0,0,1,.06.06h0l.55.94v.07l-.55.58h-.06a.06.06,0,0,1-.06,0Z" fill="#fff"/>
        <path id="Path_4508" data-name="Path 4508" d="M13.19,9.46V8.75h.06l3.29.06a.06.06,0,0,1,.06,0h0v.07l-2.6,2h0a.06.06,0,0,1-.06-.06h0Z" fill="#fff"/>
        <path id="Path_4509" data-name="Path 4509" d="M17,9l.42,1.94V11H14.47l-.06-.06v-.11l2.43-1.9c.07,0,.07,0,.13.07Z" fill="#fff"/>
        <path id="Path_4510" data-name="Path 4510" d="M17.21,8.81l2.12-.06a.07.07,0,0,1,.07.05h0v.06l-1.71,1.89s-.06.07-.06,0-.06,0-.06-.06l-.43-1.83a.06.06,0,0,1,.06-.06Z" fill="#fff"/>
        <path id="Path_4511" data-name="Path 4511" d="M17.08,11.29l-2.44,1.53h-.06l-.06-.06-.42-1.53v-.07H17c.06,0,.06,0,.06.07v.06Z" fill="#fff"/>
        <path id="Path_4512" data-name="Path 4512" d="M22.7,9.16l-2.32,1.29h-.06l-.06-.06L19.83,8.8V8.74h.07l2.74.3.06.06c.06.06.06.06,0,.06Z" fill="#fff"/>
        <path id="Path_4513" data-name="Path 4513" d="M25.2,10.4l-2.74.54H22.4v-.06l.8-1.6a.05.05,0,0,0,.06,0h.06l2,1.06-.08.12Z" fill="#fff"/>
        <path id="Path_4514" data-name="Path 4514" d="M26.78,12.58l-1.71,1.59c-.06.07-.06.07-.06,0L25,14.11l.67-3.36.07-.06c.06,0,.06,0,.06.06l1,1.7c.06.13.06.13,0,.13Z" fill="#fff"/>
        <path id="Path_4515" data-name="Path 4515" d="M27.09,15.11l-.61,1.77c0,.06,0,.06-.06.06a.06.06,0,0,1-.06-.05h0L24.89,14.7v-.06l1.83-1.77s.06-.06.06,0a.06.06,0,0,1,.06.06h0l.25,2.18Z" fill="#fff"/>
        <path id="Path_4516" data-name="Path 4516" d="M24.76,18.77l-.54-1.59v-.06h.06l1.83.17c.06,0,.06,0,.06.06v.07l-1.34,1.41c.06,0,.06,0-.07-.06.07.06,0,.06,0,0Z" fill="#fff"/>
        <path id="Path_4517" data-name="Path 4517" d="M24.46,18.71l-2.37-1.83v-.06s0-.06.05-.06h0l1.89.3.06.05h0l.49,1.53v.06h-.13Z" fill="#fff"/>
        <path id="Path_4518" data-name="Path 4518" d="M24.28,16.83l.55-1.77a.06.06,0,0,1,.05-.06h0c.06,0,.06,0,.06.06L26.29,17v.06s0,.06-.05.07h0L24.34,17c-.06-.07-.06-.07-.06-.12Z" fill="#fff"/>
        <path id="Path_4519" data-name="Path 4519" d="M24,16.52l-1-2.47V14h.06l1.47.78.06.06-.48,1.65s0,.07-.05.07h0Z" fill="#fff"/>
        <path id="Path_4520" data-name="Path 4520" d="M24.65,14.53l-1.58-.83a.05.05,0,0,1-.06,0h0v-.06L25.32,11s.07-.06.07,0a.06.06,0,0,1,.06,0h0l-.67,3.47a.07.07,0,0,1-.06.07h0s0-.05-.07-.05Z" fill="#fff"/>
        <path id="Path_4521" data-name="Path 4521" d="M22.09,14.65l-.19-.82v-.06l.1-.07h.61a.06.06,0,0,1,.06.06h0v.06l-.42.82h-.12Z" fill="#fff"/>
        <path id="Path_4522" data-name="Path 4522" d="M22.82,14.05l1.1,2.72v.06s-.06.06-.06,0l-2.13-.3a.06.06,0,0,1-.06-.06h0V16.4l.55-1.29.48-1.06c.07-.06.07-.06.13,0Z" fill="#fff"/>
        <path id="Path_4523" data-name="Path 4523" d="M22.82,13.29l-.55-2.11v-.07h.06l2.93-.53a.06.06,0,0,1,.06.06h0v.06L23,13.36a.33.33,0,0,1-.13-.07Z" fill="#fff"/>
        <path id="Path_4524" data-name="Path 4524" d="M22.57,13.53h-.73v-.06l.25-1.6c0-.06,0-.06.06-.06a.06.06,0,0,1,.06,0h0l.43,1.59s0,.08-.06.08Z" fill="#fff"/>
        <path id="Path_4525" data-name="Path 4525" d="M20.8,12.46l-.42-1.6V10.8l.06-.06,1.41.35.06.06v.06l-1,1.3a.16.16,0,0,1-.14,0c.07.06,0,.06,0,0Z" fill="#fff"/>
        <path id="Path_4526" data-name="Path 4526" d="M21.9,11.64l-.25,1.65c0,.07,0,.07-.06.07h-.06l-.61-.54v-.06l.86-1.19a.05.05,0,0,1,0-.06h0a.16.16,0,0,1,.06.13Z" fill="#fff"/>
        <path id="Path_4527" data-name="Path 4527" d="M22,10.93l-1.34-.3c-.06,0-.06,0-.06-.07a.06.06,0,0,1,.05-.06h0l2.08-1.18h.06v.06l-.73,1.47a.07.07,0,0,1-.07.08Z" fill="#fff"/>
        <path id="Path_4528" data-name="Path 4528" d="M19.71,9l.36,1.53v.06H20l-2,.3c-.06,0-.06,0-.06-.06v-.06l1.64-1.84.14.07Z" fill="#fff"/>
        <path id="Path_4529" data-name="Path 4529" d="M17.69,12.41l-2.5.41c-.06,0-.06,0-.06-.06V12.7l2.25-1.42h.07a.05.05,0,0,1,.06.05h0l.25,1.06Z" fill="#fff"/>
        <path id="Path_4530" data-name="Path 4530" d="M17.88,11.4l1.28.88a.06.06,0,0,1,.06.05h0a.07.07,0,0,1,0,.07H18a.06.06,0,0,1-.06-.05h0l-.19-.89V11.4Z" fill="#fff"/>
        <path id="Path_4531" data-name="Path 4531" d="M17.75,13.29v3.48c0,.06,0,.06-.06.06s-.06,0-.06-.06L16.83,15v-.06l.8-1.71.06-.06c.06.06.06.06.06.12Z" fill="#fff"/>
        <path id="Path_4532" data-name="Path 4532" d="M19.83,12.41l.3-1.12.06-.06c.07,0,.07,0,.07.06l.3,1.29v.07H20.5l-.61-.18a.06.06,0,0,1-.05-.06Z" fill="#fff"/>
        <path id="Path_4533" data-name="Path 4533" d="M18,11.1l2-.3h.06v.06l-.42,1.42a.06.06,0,0,1-.06.06h-.07L18,11.22c0-.06,0-.06.05-.12Z" fill="#fff"/>
        <path id="Path_4534" data-name="Path 4534" d="M21.48,16.7l2.43,1.83s.07.07,0,.07a.05.05,0,0,1-.05.06h0L20.57,17.6c-.07,0-.07,0-.07-.06v-.06l.91-.71a.07.07,0,0,1,.06-.07Z" fill="#fff"/>
        <path id="Path_4535" data-name="Path 4535" d="M20.19,17.71l.49,1.66c0,.06,0,.06-.06.06h-.06L18.3,17.78a.06.06,0,0,1-.06-.06h0l.06-.06,1.89.05C20.13,17.65,20.19,17.65,20.19,17.71Z" fill="#fff"/>
        <path id="Path_4536" data-name="Path 4536" d="M20.51,17.76,24.11,19a.062.062,0,0,1,.06.05h0a.06.06,0,0,1-.06.06h0l-3.18.53c-.06,0-.06,0-.06-.06l-.49-1.71v-.06h.13Z" fill="#fff"/>
        <path id="Path_4537" data-name="Path 4537" d="M24.71,19.24,25.08,21A.06.06,0,0,1,25,21h0l-3.6-1.18-.06-.06s0-.06.05-.07h0l3.17-.53c.19,0,.19.07.19.07Z" fill="#fff"/>
        <path id="Path_4538" data-name="Path 4538" d="M26.59,20l-1.22,1s-.06.06-.06,0-.06,0-.06-.06L25,19.36v-.05h0l1.52.58.06.06c.07,0,0,.05,0,.05Z" fill="#fff"/>
        <path id="Path_4539" data-name="Path 4539" d="M28.06,21.66l-2.44-.47-.06-.06c0-.07,0-.07.06-.07l1.23-.94c.06-.07.06,0,.12,0l1.22,1.42v.06A.16.16,0,0,1,28.06,21.66Z" fill="#fff"/>
        <path id="Path_4540" data-name="Path 4540" d="M29.1,24.25l-1.16.41h-.06V24.6l.61-2.18.05-.06h0a.05.05,0,0,1,.06.05h0l.61,1.77a.16.16,0,0,1-.12.06Z" fill="#fff"/>
        <path id="Path_4541" data-name="Path 4541" d="M28.73,27.37l-1.34-.17a.06.06,0,0,1-.06-.05h0v-.06L29,24.9s.06-.06.06,0,.06,0,.07.05h0l-.3,2.35-.07.08Z" fill="#fff"/>
        <path id="Path_4542" data-name="Path 4542" d="M27.27,29.32l-.13-1.94a.07.07,0,0,1,.06-.07h.07l1.34.18c.06,0,.06,0,.06.06v.06l-1.22,1.71a.11.11,0,0,1-.16,0h0Z" fill="#fff"/>
        <path id="Path_4543" data-name="Path 4543" d="M24.46,31l-.12-2.11v-.07h.06l2.44.95.06.06a.08.08,0,0,1,0,.07h0l-2.25,1.18c-.07,0-.07,0-.13-.08Z" fill="#fff"/>
        <path id="Path_4544" data-name="Path 4544" d="M22.15,31.56,20,30.26a.08.08,0,0,1-.07-.05h0a.06.06,0,0,1,.06-.06h0l3.72,1,.06.06a.05.05,0,0,1-.05.06h0Z" fill="#fff"/>
        <path id="Path_4545" data-name="Path 4545" d="M18.13,31.75l1-1.77h.12l2.5,1.53a.06.06,0,0,1,.06,0h0a.06.06,0,0,1-.05.06h0l-3.41.24h-.06c-.13-.07-.13-.07-.13-.12Z" fill="#fff"/>
        <path id="Path_4546" data-name="Path 4546" d="M20.26,19.59l-3.85-.23c-.06,0-.06,0-.06-.07v-.06l1.46-1.53h.07l2.38,1.77s.06.06,0,.06.06.06,0,.06Z" fill="#fff"/>
        <path id="Path_4547" data-name="Path 4547" d="M16.11,19.07l-.48-1.83v-.06h.06l1.89.41c.06,0,.06,0,.06.06v.06l-1.4,1.42a.16.16,0,0,1-.13-.06Z" fill="#fff"/>
        <path id="Path_4548" data-name="Path 4548" d="M17.63,21.43,15.8,22h-.06l-.06-.06.42-2.13a.06.06,0,0,1,0-.06h.07l1.47,1.59c-.06.07,0,.07-.06.13Z" fill="#fff"/>
        <path id="Path_4549" data-name="Path 4549" d="M16.47,19.53l3.91.24a.05.05,0,0,1,.06.05h0v.06L18,21.3h-.06l-1.47-1.66v-.06h0Z" fill="#fff"/>
        <path id="Path_4550" data-name="Path 4550" d="M20.81,20l.48,1.36v.06h-2.8c-.06,0-.06,0-.06-.06a.06.06,0,0,1,.05-.06h0l2.25-1.36Z" fill="#fff"/>
        <path id="Path_4551" data-name="Path 4551" d="M21.11,19.89,24.46,21l.07.07a.06.06,0,0,1-.06.06h0l-2.86.24c-.06,0-.06,0-.06-.07l-.5-1.3Z" fill="#fff"/>
        <path id="Path_4552" data-name="Path 4552" d="M24.76,21.42l-1.47,1.12h-.06l-1.34-.88-.06-.06.06-.06,2.8-.24a.06.06,0,0,1,.06.05h0c.08,0,.08.06,0,.06Z" fill="#fff"/>
        <path id="Path_4553" data-name="Path 4553" d="M23.61,23l3,1.54s.06,0,.07.05h0l-.07.06-2.5-.35c-.06,0-.06,0-.06-.06L23.48,23v-.07Z" fill="#fff"/>
        <path id="Path_4554" data-name="Path 4554" d="M24.21,24.61l2.32,2.24c.06,0,.06.06,0,.06a.06.06,0,0,1-.05.06h0l-2.63-.58a.06.06,0,0,1-.06-.05h0l.36-1.66C24.16,24.61,24.16,24.61,24.21,24.61Z" fill="#fff"/>
        <path id="Path_4555" data-name="Path 4555" d="M23.61,26.67,24,28.32c0,.06,0,.06-.06.06h-.06l-1.59-.88-.06-.06v-.06l1.16-.78a.3.3,0,0,1,.19.07Z" fill="#fff"/>
        <path id="Path_4556" data-name="Path 4556" d="M22.09,27.61l1.22.65.06.06-.06.06L20.93,28c-.06,0-.06,0-.06-.06s0-.06.06-.06l1.16-.24Z" fill="#fff"/>
        <path id="Path_4557" data-name="Path 4557" d="M19.83,28.08l-.67,1.42-.06.06c-.06,0-.06,0-.06-.06L18.18,28h0l.06-.06,1.58.11c-.05,0-.05,0,0,.06Z" fill="#fff"/>
        <path id="Path_4558" data-name="Path 4558" d="M25.26,21.36l2,3v.06H27.2l-3.66-1.77h-.07a.06.06,0,0,1,.06-.06h0L25.2,21.3c0,.06,0,.06.06.06Z" fill="#fff"/>
        <path id="Path_4559" data-name="Path 4559" d="M25.56,21.31l2.69.54a.05.05,0,0,1,.06,0h0V22l-.67,2.54a.06.06,0,0,1-.06.06h0s-.07,0-.07-.05h0l-2.07-3.09V21.4a.22.22,0,0,1,.12-.05Z" fill="#fff"/>
        <path id="Path_4560" data-name="Path 4560" d="M27.52,25,27,26.9V27h-.06L24.5,24.65v-.06a.05.05,0,0,1,.05-.06h0l2.93.41a.06.06,0,0,1,.06.05Z" fill="#fff"/>
        <path id="Path_4561" data-name="Path 4561" d="M28.92,24.66l-1.47,1.89s0,.06-.05.06h0l-.06-.06L27.69,25a.06.06,0,0,1,0-.06h0l1-.35h.07a.08.08,0,0,1,.07.05Z" fill="#fff"/>
        <path id="Path_4562" data-name="Path 4562" d="M23.91,26.55l2.74.65a.06.06,0,0,1,.06.05h0c0,.06,0,.06-.06.06L24.4,28.43h-.06l-.07-.06-.42-1.77v-.06Z" fill="#fff"/>
        <path id="Path_4563" data-name="Path 4563" d="M27,27.5l.13,2.06v.07H27l-2.37-.95-.07-.06c0-.06,0-.06.07-.06l2.25-1.12H27v.06Z" fill="#fff"/>
        <path id="Path_4564" data-name="Path 4564" d="M23.43,28.73l-4,.95h-.06s-.06-.06,0-.06l.73-1.47.07-.07,3.28.54a.08.08,0,0,1,.07.05h0s-.07,0-.07.06Z" fill="#fff"/>
        <path id="Path_4565" data-name="Path 4565" d="M13.31,18.43l2-1.19h.06c.06,0,.06,0,.06.06l.49,1.95v.06h-.07l-2.5-.71c-.06-.12-.06-.12-.06-.18Z" fill="#fff"/>
        <path id="Path_4566" data-name="Path 4566" d="M15.38,21.9l-1-.95v-.11l1.4-1.12h.06s.06,0,.07.05h0l-.43,2a.05.05,0,0,1,0,.06h0c0,.06,0,.06-.07.06Z" fill="#fff"/>
        <path id="Path_4567" data-name="Path 4567" d="M17.63,21.72l-.91,2.07a.06.06,0,0,1,0,.06H16.6l-.86-1.53v-.06a.07.07,0,0,1,0-.07h0l1.77-.53h.06v.06Z" fill="#fff"/>
        <path id="Path_4568" data-name="Path 4568" d="M15.62,22.48,16.53,24v.06a.07.07,0,0,1-.05.07h0L14.4,25.2h-.06s-.06-.07,0-.07l1.16-2.65a.13.13,0,0,1,.12,0c-.06-.05,0-.05,0,0Z" fill="#fff"/>
        <path id="Path_4569" data-name="Path 4569" d="M15.69,28.38l1-3.71a.06.06,0,0,1,.05-.06h0a.06.06,0,0,1,.06.05h0l.91,3c0,.06,0,.06-.06.06l-1.89.65c0,.05-.05.05-.05,0Z" fill="#fff"/>
        <path id="Path_4570" data-name="Path 4570" d="M17.46,28.15l-1.77,1.76h-.07a.05.05,0,0,1-.06-.05h0V28.73c0-.06,0-.06.06-.06l1.77-.59a.07.07,0,0,1,.07.06Z" fill="#fff"/>
        <path id="Path_4571" data-name="Path 4571" d="M18.91,29.85l-.86,1.47a.06.06,0,0,1-.05.06h0a.05.05,0,0,1-.06-.05h0V28.38a.06.06,0,0,1,.05-.06h0a.06.06,0,0,1,.06.05h0Z" fill="#fff"/>
        <path id="Path_4572" data-name="Path 4572" d="M17.69,31.62l-2-1.3v-.11l1.95-2h.06a.08.08,0,0,1,.07.05h0v3.36a.06.06,0,0,1-.06.06h0c.07,0,0,0,0-.06Z" fill="#fff"/>
        <path id="Path_4573" data-name="Path 4573" d="M15.38,29v1.18a.06.06,0,0,1-.06.06h0l-1.89.95h-.06v-.06L15.25,29h.06C15.38,28.92,15.38,29,15.38,29Z" fill="#fff"/>
        <path id="Path_4574" data-name="Path 4574" d="M24.22,31.08,19.71,29.9a.06.06,0,0,1-.06,0h0c0-.06,0-.06.06-.06l4.4-1h.06l.06.06.13,2.1a.15.15,0,0,0-.14,0Z" fill="#fff"/>
        <path id="Path_4575" data-name="Path 4575" d="M14.47,25.37l2-1h.07v.06l-1,3.66a.09.09,0,0,1-.06.07h0c-.06,0-.06,0-.06-.06l-1-2.65c0-.05,0-.07.05-.07Z" fill="#fff"/>
        <path id="Path_4576" data-name="Path 4576" d="M17.69,12.7l-.91,2-.06.06h-.06l-1.83-1.6s-.06-.06,0-.06,0-.06.06-.06l2.74-.41h.06v.06Z" fill="#fff"/>
        <path id="Path_4577" data-name="Path 4577" d="M15,14.7l-.3.3h-.06a.06.06,0,0,1-.06-.05h0l.06-1.12a.06.06,0,0,1,.06-.06h0c.07,0,.07,0,.07.06l.3.82a.08.08,0,0,1-.07,0Z" fill="#fff"/>
        <path id="Path_4578" data-name="Path 4578" d="M15,13.53l1.3,1.17s.06.06,0,.06a.07.07,0,0,1-.06.07h0l-1-.18a.06.06,0,0,1-.06-.06h0l-.36-1v-.06c0-.06.05-.06.11,0Z" fill="#fff"/>
        <path id="Path_4579" data-name="Path 4579" d="M16.54,15.11l-.91,1.42a.07.07,0,0,1-.06.07h0c-.06,0-.06,0-.06-.07l-.25-1.59v-.06h.06l1.16.17c.07,0,.07,0,.07.06s.06,0,0,0Z" fill="#fff"/>
        <path id="Path_4580" data-name="Path 4580" d="M17.58,17.41l-1.83-.47a.06.06,0,0,1-.06-.05h0v-.06l1-1.6.06-.06s.13.06.13.11l.86,2v.06c-.08.08-.08.08-.13.08Z" fill="#fff"/>
        <path id="Path_4581" data-name="Path 4581" d="M15.14,16.29l-.61-.88v-.06l.42-.3s.07-.06.07,0a.06.06,0,0,1,.06,0h0l.18,1.18c0,.06,0,.06-.06.06Z" fill="#fff"/>
      </g>
    </g>
  </g>
</svg>
