<svg xmlns="http://www.w3.org/2000/svg" width="107.948" height="108.137" viewBox="0 0 107.948 108.137">
  <g id="Convert_illustration" data-name="Convert illustration" transform="translate(0 0)">
    <g id="Group_29580" data-name="Group 29580" transform="translate(0 0)" style="mix-blend-mode: normal;isolation: isolate">
      <g id="Group_29568" data-name="Group 29568" transform="translate(11.128 7.278)">
        <path id="Path_32616" data-name="Path 32616" d="M2498.613-4485.524l-.045,17.567c.018-7.057-4.108-14.125-12.365-19.512-16.414-10.7-42.927-10.7-59.235,0-8.1,5.317-12.153,12.273-12.172,19.243l.045-17.568c.017-6.969,4.073-13.927,12.172-19.241,16.308-10.7,42.819-10.7,59.234,0C2494.505-4499.651,2498.631-4492.583,2498.613-4485.524Z" transform="translate(-2414.796 4513.062)" fill="#121b45"/>
      </g>
      <g id="Group_29569" data-name="Group 29569" transform="translate(20.709 34.814)">
        <path id="Path_32617" data-name="Path 32617" d="M2491.993-4481.027l-.046,17.328v.113a13.559,13.559,0,0,1-.366,3.121l-2.167-1.414-.017,6.49c-.144.224-.3.458-.464.682a23.746,23.746,0,0,1-6.375,5.959,34.918,34.918,0,0,1-7.527,3.663A42.449,42.449,0,0,1,2467-4443.1c-.688.109-1.375.2-2.071.267a46.34,46.34,0,0,1-4.763.267,47.049,47.049,0,0,1-5.663-.279,40.384,40.384,0,0,1-17.61-5.9,24.989,24.989,0,0,1-5.846-5.177l-.008-.007c-.3-.389-.6-.775-.862-1.171a.025.025,0,0,1-.007-.016l.015-6.76-2.4,1.568a13.907,13.907,0,0,1-.436-3.482v-.121l.046-17.206c.007.319.023.637.054.956a4.4,4.4,0,0,0,.045.448c.015.163.038.338.07.5s.045.326.075.482a14.849,14.849,0,0,0,1.207,3.674c.061.139.13.284.207.42.106.218.228.441.351.657s.242.434.372.637c0,.007.009.007.009.007.2.32.405.63.626.949s.465.619.711.935c.19.229.381.463.579.687.115.13.236.269.367.4.313.345.633.672.975,1,.154.139.307.286.459.425.13.12.26.231.4.352a28.2,28.2,0,0,0,3.029,2.276c12.655,8.249,33.1,8.249,45.676,0,.314-.208.627-.413.925-.638.649-.458,1.252-.933,1.826-1.415.25-.215.495-.429.739-.654.062-.054.115-.1.168-.153.229-.218.443-.433.656-.65.244-.24.482-.491.7-.75s.443-.508.656-.765c.222-.278.426-.545.625-.82.154-.2.291-.415.429-.621.159-.243.313-.483.45-.725s.275-.467.405-.706c.077-.137.144-.276.214-.416.015-.028.031-.052.046-.085.184-.39.359-.777.511-1.164a13.19,13.19,0,0,0,.436-1.261c.044-.163.09-.316.138-.481a.163.163,0,0,0,.014-.052c.083-.31.152-.619.206-.937s.107-.64.145-.95c.008-.084.015-.165.023-.243a1.4,1.4,0,0,0,.023-.25c.014-.137.023-.273.029-.413.009-.154.018-.319.018-.463A.53.53,0,0,0,2491.993-4481.027Z" transform="translate(-2427.348 4481.121)" fill="#121b45"/>
      </g>
      <g id="Group_29570" data-name="Group 29570" transform="translate(20.755 13.546)">
        <path id="Path_32618" data-name="Path 32618" d="M2482.475-4499.6c12.652,8.252,12.718,21.629.144,29.885s-33.019,8.248-45.67,0-12.725-21.632-.155-29.885S2469.819-4507.857,2482.475-4499.6Z" transform="translate(-2427.41 4505.794)" fill="#fa9419"/>
      </g>
      <g id="Group_29571" data-name="Group 29571" transform="translate(90.621 66.677)">
        <path id="Path_32619" data-name="Path 32619" d="M2525.862-4439.662a42.576,42.576,0,0,1-6.924,5.593l.023-10.094Z" transform="translate(-2518.938 4444.163)" fill="#ffb063"/>
      </g>
      <g id="Group_29572" data-name="Group 29572" transform="translate(82.728 34.848)">
        <path id="Path_32620" data-name="Path 32620" d="M2531.947-4481.082l-.038,17.568c-.016,6.543-2.847,13.08-8.489,18.759l-6.9-4.5-7.892-5.148.007-.982.015-6.491,2.169,1.412,5.724,3.735a45.925,45.925,0,0,0,4.19-3.1l.55-.466c.167-.139.329-.284.488-.43.237-.208.466-.415.689-.63.12-.111.243-.234.365-.345.016-.011.022-.025.038-.034.183-.182.365-.361.551-.543s.381-.389.564-.579c0-.009.008-.009.015-.019.229-.24.45-.48.672-.723s.427-.484.634-.724c.443-.518.855-1.043,1.252-1.569.2-.259.381-.515.565-.776s.374-.528.542-.793.344-.533.5-.8a26.873,26.873,0,0,0,1.335-2.439c.024-.053.047-.094.069-.147.2-.408.374-.809.541-1.214.146-.354.284-.716.413-1.068s.244-.692.351-1.043c.038-.113.069-.225.1-.337.083-.268.16-.542.23-.811.083-.319.151-.628.22-.938.054-.234.1-.467.138-.708.053-.268.1-.543.138-.82.083-.55.144-1.105.182-1.646.015-.147.024-.293.031-.439v-.08c.015-.164.023-.328.023-.491C2531.947-4480.652,2531.947-4480.867,2531.947-4481.082Z" transform="translate(-2508.605 4481.082)" fill="#121b45"/>
        <path id="Path_32621" data-name="Path 32621" d="M2516.514-4444.984l-.023,10.1-7.893-5.147.023-10.1Z" transform="translate(-2508.598 4476.813)" fill="#121b45"/>
      </g>
      <g id="Group_29573" data-name="Group 29573" transform="translate(0.046)">
        <path id="Path_32622" data-name="Path 32622" d="M2506.3-4486.658c0,.217,0,.433-.014.647,0,.165-.008.328-.023.493v.077c-.007.148-.015.293-.03.442-.038.54-.1,1.092-.184,1.645-.038.274-.083.552-.137.818-.038.244-.083.474-.137.708-.07.31-.137.62-.221.94-.07.266-.145.542-.23.808-.031.112-.06.225-.1.337-.108.355-.23.7-.352,1.043s-.267.716-.412,1.068c-.168.407-.343.812-.542,1.218-.023.052-.045.095-.07.146a27.224,27.224,0,0,1-1.335,2.44c-.16.265-.327.534-.5.8s-.359.536-.542.794-.367.518-.565.776c-.4.524-.809,1.052-1.251,1.566-.206.245-.42.485-.634.727s-.443.483-.671.722c-.007.011-.016.011-.016.017-.183.193-.374.391-.564.581s-.365.364-.55.545c-.017,0-.022.024-.038.033-.123.111-.245.232-.366.343-.222.216-.452.422-.688.631-.161.147-.321.294-.489.429l-.55.468a46.513,46.513,0,0,1-4.189,3.094l-5.726-3.733-2.168-1.416c.893-.584,1.74-1.2,2.534-1.818a26.849,26.849,0,0,0,7.411-8.646,19.065,19.065,0,0,0,2.22-8.776,19.528,19.528,0,0,0-3.09-10.405c-.259-.413-.535-.819-.824-1.233a27.186,27.186,0,0,0-1.931-2.4l-.413-.441c-.106-.112-.214-.223-.32-.333-.039-.036-.069-.08-.108-.114-.09-.095-.182-.181-.275-.268-.19-.2-.388-.389-.587-.568s-.389-.365-.589-.534c-.633-.569-1.313-1.12-2.021-1.665-.229-.179-.467-.352-.71-.524-.482-.346-.984-.69-1.5-1.027-16.411-10.7-42.921-10.7-59.233,0-.3.2-.6.4-.885.6s-.573.4-.848.6c-.618.466-1.206.933-1.77,1.406-.428.36-.832.724-1.23,1.1a26.844,26.844,0,0,0-2.183,2.292c-.092.1-.191.225-.275.335-.183.227-.358.442-.527.664-.213.268-.412.543-.61.819-.175.25-.344.5-.512.752-.327.509-.633,1.016-.907,1.525-.137.26-.275.509-.4.768v.009c-.252.515-.482,1.041-.688,1.568a2.774,2.774,0,0,0-.137.352c-.161.414-.3.837-.42,1.25-.069.215-.129.43-.183.647s-.106.431-.152.648-.092.429-.129.636c-.054.285-.1.579-.139.862a.662.662,0,0,0-.015.12l-.023.182c-.008.068-.015.122-.022.182-.008.085-.015.164-.024.241-.015.128-.023.259-.031.378-.016.164-.023.327-.031.483-.015.293-.022.578-.022.863a19.057,19.057,0,0,0,2.175,8.741,26.885,26.885,0,0,0,7.359,8.69c.885.7,1.825,1.379,2.832,2.032l-2.4,1.569-5.45,3.579a45.993,45.993,0,0,1-5.312-4.035,37.82,37.82,0,0,1-2.939-2.9c-4.932-5.439-7.4-11.568-7.4-17.7,0-8.836,5.13-17.672,15.4-24.416,20.633-13.543,54.2-13.543,74.974,0C2501.1-4504.538,2506.325-4495.589,2506.3-4486.658Z" transform="translate(-2400.278 4521.506)" fill="#fa9419"/>
      </g>
      <g id="Group_29574" data-name="Group 29574" transform="translate(0 34.573)">
        <path id="Path_32623" data-name="Path 32623" d="M2423.76-4461.919l-.016,6.758-.03,10.811-7.846,5.147c-10.451-6.811-15.672-15.759-15.649-24.688l.046-17.511c0,6.128,2.465,12.258,7.4,17.7a38.418,38.418,0,0,0,2.938,2.9,45.511,45.511,0,0,0,5.314,4.035l5.449-3.576Z" transform="translate(-2400.218 4481.402)" fill="#121b45"/>
      </g>
      <g id="Group_29575" data-name="Group 29575" transform="translate(47.84 60.978)">
        <path id="Path_32624" data-name="Path 32624" d="M2468.606-4450.772l-.044,17.565-5.67,3.724.044-17.569Z" transform="translate(-2462.892 4450.772)" fill="#121b45"/>
      </g>
      <g id="Group_29576" data-name="Group 29576" transform="translate(58.264 64.272)">
        <path id="Path_32625" data-name="Path 32625" d="M2532.317-4420.682l-.045,17.562-30.014-2.8.015-7.411.024-10.157,5.671.535Z" transform="translate(-2482.634 4443.715)" fill="#121b45"/>
        <path id="Path_32626" data-name="Path 32626" d="M2501.891-4430.451l-.007,4.259-5.672-.533-.023,10.154-19.64-12.811.046-17.57Z" transform="translate(-2476.549 4446.952)" fill="#121b45"/>
      </g>
      <g id="Group_29577" data-name="Group 29577" transform="translate(58.31 54.901)">
        <path id="Path_32627" data-name="Path 32627" d="M2526.247-4425.416l-24.349-2.276-5.673-.534,5.68-3.725-15.213-9.922-10.084-6.578,14.274-9.371,9.71,6.329.457.3,7.894,5.149,6.9,4.5.345.225,5.67-3.726Z" transform="translate(-2476.608 4457.822)" fill="#3d72fc"/>
      </g>
      <g id="Group_29578" data-name="Group 29578" transform="translate(23.495 58.168)">
        <path id="Path_32628" data-name="Path 32628" d="M2480.69-4431.006l-.045,17.573-14.274,9.369-25.3-16.493-5.68,3.726L2431-4436.459l.045-17.573,4.39,19.63,5.679-3.723,25.3,16.492Z" transform="translate(-2430.999 4454.032)" fill="#121b45"/>
      </g>
      <g id="Group_29579" data-name="Group 29579" transform="translate(23.539 58.169)">
        <path id="Path_32629" data-name="Path 32629" d="M2461.071-4451.222l-5.67,3.721,25.3,16.5-14.279,9.372-25.3-16.5-5.675,3.725-4.391-19.629Z" transform="translate(-2431.057 4454.032)" fill="#94c1ea"/>
      </g>
    </g>
  </g>
</svg>
