<svg id="PAX" xmlns="http://www.w3.org/2000/svg" width="40" height="40" viewBox="0 0 40 40">
  <g id="Layer_1" data-name="Layer 1">
    <g id="pax-2" data-name="pax">
      <circle id="Ellipse_2" data-name="Ellipse 2" cx="17.5" cy="17.5" r="17.5" transform="translate(2.5 2.5)" fill="#fff"/>
      <g id="Group_4" data-name="Group 4">
        <g id="Group_3" data-name="Group 3">
          <path id="Path_11" data-name="Path 11" d="M20,28.37a8.091,8.091,0,0,0,4.4-1.3C27.31,25.2,29.2,21.01,26.86,15.85A6.93,6.93,0,0,0,22.37,12a8.11,8.11,0,0,0-6.82,1.37,8.15,8.15,0,0,0,4.48,15Z" fill="#1c7b5b"/>
          <path id="Path_12" data-name="Path 12" d="M20,0A20,20,0,1,0,40,20h0A20,20,0,0,0,20,0Zm3.25,8.33c2,1.41,4.14,1.77,6.6,2.2.43.06.92.15,1.41.24a2.86,2.86,0,0,1,2.09,1.37c.62,1.07.62,2.75,0,4.7a1.09,1.09,0,0,0-.06-.11l-.07-.12-.07-.09c-.09-.11-.18-.22-.27-.35a.47.47,0,0,1-.06-.09h0a3.369,3.369,0,0,0-.27-.34s-.05-.07-.07-.09l-.09-.11-.16-.2c0-.05-.06-.07-.09-.11l-.09-.09c0-.07-.11-.12-.15-.18l-.14-.14h0l-.2-.2-.16-.16h0l-.2-.2c-.06,0-.11-.11-.18-.16l-.2-.2-.18-.15a.86.86,0,0,0-.2-.18,1.29,1.29,0,0,1-.17-.16l-.23-.18L29.88,13a1.92,1.92,0,0,0-.22-.18h0a.91.91,0,0,0-.16-.11,1.43,1.43,0,0,0-.22-.15l-.07-.05a.91.91,0,0,0-.16-.11l-.22-.16h-.07l-.13-.09c-.09-.07-.2-.12-.29-.18h-.05l-.09-.06-.45-.27A4.52,4.52,0,0,0,27,11.2h0a5.7,5.7,0,0,0-.72-.29h0c-.25-.09-.49-.16-.74-.23h0l-.76-.18h-.09l-.79-.38h0L23,9.74c-.29-.11-.6-.2-.92-.31h0l-1-.27h-.11c-.32-.06-.63-.15-1-.22H19.9c-.31-.07-.67-.12-1-.18h-.09l-1-.14H17.7c-.34,0-.72-.07-1.1-.09a5.11,5.11,0,0,1,6.7-.18ZM29.9,18.75v-.9h0a1.092,1.092,0,0,0-.06-.43,2,2,0,0,1-.05-.24,2.59,2.59,0,0,0-.09-.4v-.07a.49.49,0,0,0-.05-.16l-.13-.47h0v-.07c-.07-.2-.14-.38-.2-.58,0,0,0-.07-.05-.09s0,0,0-.07l-.18-.4a1,1,0,0,0-.07-.15v-.05l-.18-.33a1.28,1.28,0,0,0-.11-.2c-.07-.12-.13-.2-.2-.34v-.05a.6.6,0,0,1-.09-.15c-.07-.11-.16-.2-.25-.34h0l-.07-.09c-.13-.16-.27-.32-.4-.45h0l-.38-.38c-.05,0-.07-.06-.12-.09h0a2.69,2.69,0,0,0-.32-.27,1.436,1.436,0,0,1-.15-.14,1,1,0,0,0,.15.07h.09a.33.33,0,0,0,.14,0c.22.11.42.2.63.32s.29.18.44.27h.09l.09.07c.09,0,.16.11.25.15l.11.07.11.09.2.14a.34.34,0,0,1,.12.09l.13.09c.07,0,.11.09.18.13l.13.09.05.09a.83.83,0,0,0,.15.11l.12.09.13.11.16.14L30,14l.11.09.16.13a.74.74,0,0,0,.13.12l.11.09.16.13.14.13.09.09.13.14.13.13.09.11.14.14.13.15.05.07.13.16.13.13.07.09a1.07,1.07,0,0,1,.14.16c0,.07.09.09.11.16l.06.06c.05.05.09.12.14.16a.91.91,0,0,1,.11.16h.05a.59.59,0,0,0,.13.18l.11.16v.07a1.09,1.09,0,0,0,.13.17c0,.07.07.12.11.18h0l.09.13a.693.693,0,0,1-.11.29v.07L33,18a2.5,2.5,0,0,0-.09.25c0,.11-.1.22-.16.33v.11a.56.56,0,0,0,0,.12l-.11.24a2.21,2.21,0,0,1-.18.34l-.11.22-.14.27-.2.34-.11.13-.07.13c0,.09-.09.16-.13.25l-.2.34-.09.13a.38.38,0,0,1-.09.13,2.13,2.13,0,0,1-.16.25c-.07.11-.16.22-.24.36l-.09.11-.09.13c0,.07-.12.16-.16.23a3.32,3.32,0,0,1-.32.42l-.06.09c0,.05-.07.09-.09.14l-.14.18c-.22.27-.44.56-.67.83s-.36.42-.56.62l-.09.09-.07.07h0l-.15.18c.06-.13.15-.24.22-.38s0,0,0-.07h0a4.53,4.53,0,0,0,.27-.54.238.238,0,0,1,.06-.16c.06-.05,0,0,0-.09a3.12,3.12,0,0,0,.18-.42.92.92,0,0,1,.09-.23h0c0-.16.11-.29.13-.43a2.048,2.048,0,0,1,.09-.29,4.26,4.26,0,0,0,.11-.42,2.64,2.64,0,0,0,.07-.3,3.12,3.12,0,0,0,.09-.44v-.07a1.19,1.19,0,0,0,.05-.22,2.81,2.81,0,0,0,0-.5v-.09a.44.44,0,0,1,0-.16c0-.27,0-.51,0-.76S29.9,19,29.9,18.75Zm-14.63-9c.11-.1.2-.2.3-.31V9.39l.27-.27h0a2.17,2.17,0,0,1,.36,0l.85.07a.68.68,0,0,1,.2,0l.81.09h.09c.22,0,.47.07.71.09H19a.2.2,0,0,1,.11,0l.74.13a.15.15,0,0,1,.09,0H20l.62.14h.09a5.54,5.54,0,0,1,.67.18h.14l.6.18h0l.51.18H22a5.52,5.52,0,0,0-.71.05H21.2a1.579,1.579,0,0,0-.64.09h-.18a2.69,2.69,0,0,0-.68.13h0l-.16.05a4.83,4.83,0,0,0-.62.18l-.21.06-.62.2c-.05,0-.09,0-.11.05h-.07c-.2.07-.38.16-.56.22l-.18.07-.56.27h-.07a1.05,1.05,0,0,1-.11.07,6.65,6.65,0,0,0-.58.33l-.18.12c-.2.11-.38.24-.56.35l-.11.09h-.05l-.56.42v.05h-.05c-.18.14-.33.29-.49.43h0c-.16.16-.34.31-.52.49h0l-.06.07-.47.54a.87.87,0,0,0-.09.11c-.16.2-.32.38-.45.58v.05h0l-.42.65c-.11.18-.2.36-.32.58l-.06.14h0a4.28,4.28,0,0,1-.2.43,1.76,1.76,0,0,1-.09.2c-.06.13-.11.29-.17.45v.15a5.1,5.1,0,0,0-.2.63.64.64,0,0,0,0,.09v.07a1.964,1.964,0,0,1-.13.49.85.85,0,0,0,0,.22,3.58,3.58,0,0,0-.09.45h0a.52.52,0,0,0,0,.18,3.626,3.626,0,0,1-.09.56v.09a2.5,2.5,0,0,1-.06.65v2.09a2.983,2.983,0,0,0,.05.67v.11l.07.54a2.37,2.37,0,0,1-.09-.36.09.09,0,0,0,0-.07h0a.629.629,0,0,0-.06-.34c-.06-.11,0-.07,0-.11v-.05a1.06,1.06,0,0,1,0-.31V21.7a2.42,2.42,0,0,1,0-.38V20.05a2.9,2.9,0,0,0,.07-.38V19.6a.29.29,0,0,1,0-.09,2.91,2.91,0,0,1,.12-.51.06.06,0,0,1,0-.07v-.05a1.24,1.24,0,0,1,.11-.43c.05-.14,0-.09,0-.13v-.05a1.807,1.807,0,0,1,.09-.35l.06-.2c.05-.12.07-.23.12-.34l.06-.2.14-.38v-.16a4.551,4.551,0,0,1,.23-.54h0l.2-.44c0-.05.05-.07.05-.12v-.06a2,2,0,0,1,.18-.36,1.76,1.76,0,0,1,.09-.2c.06-.11.11-.22.18-.34h0a1.512,1.512,0,0,0,.09-.16c.02-.05.13-.24.2-.36h0a.18.18,0,0,0,0-.09c.12-.18.23-.36.32-.52h0a4.35,4.35,0,0,1,.32-.47l.09-.11v-.05l.25-.33.13-.2a3.92,3.92,0,0,1,.25-.32h0c0-.07.09-.11.13-.18l.27-.33v-.05a.87.87,0,0,0,.09-.11l.43-.49c.14-.16.25-.3.38-.43h0c.12-.14.23-.25.34-.36s-.14-.3-.12-.3Zm-8,17.18c-.87-1.59-.67-3.83.56-6.63a22.89,22.89,0,0,0,1.44-5.13h0c.67-3.47,1.14-6,5.82-6.05-.13.14-.29.29-.43.45l-.06.07-.2.2h0c-.1.09-.18.2-.27.29l-.47.54h0q-.23.27-.42.54h0a6.25,6.25,0,0,0-.4.54h0c-.13.18-.24.36-.36.51v.07c-.14.2-.25.36-.34.52h0a5.72,5.72,0,0,0-.32.52h0v.05c0,.05-.18.31-.27.49h0s-.18.32-.27.49,0,0,0,.07v.05c-.06.15-.15.31-.22.47s0,0,0,.06a.19.19,0,0,1-.05.09c-.06.14-.13.32-.2.47a.79.79,0,0,0,0,.09v.07a3.52,3.52,0,0,0-.18.45s0,.07,0,.09v.07h0l-.13.4a.14.14,0,0,0,0,.09v.06h0a2.38,2.38,0,0,0-.11.38v.18h0a1.137,1.137,0,0,1-.11.4c-.05.13,0,.07,0,.11v.12a2.251,2.251,0,0,1-.09.35c-.02.11,0,.08,0,.12v.09h0l-.06.34v.13l-.05.11v.07a.675.675,0,0,1-.05.31c-.05.11,0,.09,0,.14v2.94a.6.6,0,0,0,0,.23.47.47,0,0,0,0,.16v.69a1.43,1.43,0,0,0,0,.22.43.43,0,0,0,.05.16v.16a1.94,1.94,0,0,0,.05.2v.16l.05.13a.65.65,0,0,1,0,.2,1.42,1.42,0,0,0,.05.16v.15a.193.193,0,0,0,.07.18l.06.16.07.13c0,.07.05.12.07.18a.77.77,0,0,0,.07.16l.06.13.07.16a.51.51,0,0,0,.09.16l.07.13a.51.51,0,0,0,.09.16.51.51,0,0,1,.09.16l.09.13a1,1,0,0,0,.09.13.76.76,0,0,0,.11.14v.06l.05.07a.31.31,0,0,0,.09.11l.31.68.07.13v.07c.09.15.18.33.27.47a1.64,1.64,0,0,1,.14.22c.09.16.2.31.31.47v.07l.06.09q-3.83-.81-5-3ZM13.46,30H13c-.06-.07-.11-.16-.17-.22v-.07a.1.1,0,0,0-.07-.09c-.07-.02-.09-.11-.13-.18s-.13-.2-.2-.31l-.05-.07a.1.1,0,0,0-.06-.09c-.06-.02-.07-.11-.12-.16a2.78,2.78,0,0,1-.22-.42v-.05a.19.19,0,0,1,0-.09l-.06-.13c-.12-.25-.23-.47-.34-.72a12.09,12.09,0,0,1,.67-10.77l.27-.43.07-.11a.13.13,0,0,0,0-.07l.05-.06a1.166,1.166,0,0,1,.11-.16l.11-.13.09-.14a1,1,0,0,0,.09-.13l.12-.14.11-.13s.06-.07.09-.11l.13-.14.05-.06v-.07l.09-.09.14-.13.11-.12.11-.11.13-.13.12-.12a.725.725,0,0,1,.11-.09.69.69,0,0,1,.13-.11l.11-.09c.05,0,.07-.06.12-.09a1.27,1.27,0,0,0,.13-.11l.11-.09a.31.31,0,0,0,.11-.09.42.42,0,0,1,.14-.09l.11-.09a.649.649,0,0,1,.11-.09c.04-.02.09-.07.14-.09h.13a.38.38,0,0,0,.13-.09.42.42,0,0,1,.14-.09l.13-.07a.42.42,0,0,0,.14-.09.16.16,0,0,0,.13-.07l.13-.06.14-.07.13-.07.14-.06.13-.07.13-.07.14-.06.13-.07.14-.07h.13l.16-.07h.26l.16-.07a.29.29,0,0,1,.16,0l.13-.05a.29.29,0,0,1,.16,0,.69.69,0,0,0,.13-.05H19s.11,0,.15-.05h.27a1,1,0,0,1,.16-.05.3.3,0,0,1,.13,0h1.55a.2.2,0,0,0,.13,0h.11a.41.41,0,0,0,.16,0h2.08a.23.23,0,0,1,.14,0L24,11h.51a.78.78,0,0,1,.18.11h.18a1,1,0,0,0,.23.13.81.81,0,0,0,.18.12l.09.06a.31.31,0,0,0,.09.07l.18.13a1.175,1.175,0,0,1,.17.14l.09.07.09.06.18.14a.9.9,0,0,1,.18.15l.07.07.07.07.15.13.16.16.07.07.06.06.14.14c0,.06.11.11.16.18l.06.06.07.07a.69.69,0,0,1,.11.13l.14.2v.07l.07.07a1.27,1.27,0,0,0,.11.13l.13.2v.09a.11.11,0,0,1,0,.09,1.1,1.1,0,0,1,.09.14.94.94,0,0,1,.12.22v.18l.06.13a2.72,2.72,0,0,1,.11.25l.05.09v.09l.07.13a1.43,1.43,0,0,1,.09.27v.18a.33.33,0,0,1,0,.14,1.811,1.811,0,0,0,.09.31v.16a.69.69,0,0,1,.05.13.665.665,0,0,0,.07.36v.27a2.32,2.32,0,0,1,.05.38v.07a.1.1,0,0,0,0,.09.52.52,0,0,0,0,.11,1.837,1.837,0,0,0,.05.51v.88a10.46,10.46,0,0,1-4.93,8.82,12.66,12.66,0,0,1-7,2H15.25a.55.55,0,0,1-.22,0,.37.37,0,0,1-.18,0h-.18a.68.68,0,0,1-.2,0h-.83Zm17.56-4a22,22,0,0,0-6.38,4.41C22,32.83,20.29,34.4,16,32.32a8.69,8.69,0,0,1-2.33-1.66c.27,0,.52.07.76.09h.07c.24,0,.49.05.78.05h3.11a13.4,13.4,0,0,0,6.34-2.06,20,20,0,0,0,5-4.3c.22-.27.45-.54.65-.83a.91.91,0,0,0,.11-.16l.09-.11c.13-.18.27-.36.4-.56a2,2,0,0,1,.16-.22l.09-.11.33-.5c.07-.09.11-.18.18-.27l.05-.06c.1-.16.2-.31.29-.47a2,2,0,0,1,.2-.32h0c.07-.14.18-.29.27-.47a3.37,3.37,0,0,1,.2-.36c.07-.11.15-.31.24-.47s.12-.25.18-.36l.2-.47a1,1,0,0,1,.16-.36c.07-.14,0,0,0-.06h0A6.23,6.23,0,0,1,34.28,23,5.6,5.6,0,0,1,31,26.05Z" fill="#1c7b5b"/>
        </g>
      </g>
    </g>
  </g>
</svg>
