<svg id="USD" xmlns="http://www.w3.org/2000/svg" width="39.998" height="39.998" viewBox="0 0 39.998 39.998">
  <circle id="Ellipse_3038" data-name="Ellipse 3038" cx="19.999" cy="19.999" r="19.999" fill="#3cc391"/>
  <g id="Group_30718" data-name="Group 30718" transform="translate(12.205 7.74)">
    <g id="Group_30717" data-name="Group 30717" transform="translate(0 0)">
      <g id="Group_30716" data-name="Group 30716">
        <g id="Group_30715" data-name="Group 30715">
          <path id="Path_33490" data-name="Path 33490" d="M-3463.048-1374.2a8.965,8.965,0,0,0-3.258-1.377l-1.164-.254a.279.279,0,0,1-.222-.273v-4.941a.282.282,0,0,1,.172-.259.28.28,0,0,1,.224,0l.018.006a2.672,2.672,0,0,1,1.864,2.517h3.365a5.358,5.358,0,0,0-2.165-4.186,7.684,7.684,0,0,0-3.248-1.378.28.28,0,0,1-.23-.275v-2.47h-3.059v2.37a.28.28,0,0,1-.246.278,6.928,6.928,0,0,0-3.874,1.561,5.377,5.377,0,0,0-1.845,4.175,4.49,4.49,0,0,0,1.868,4,11.912,11.912,0,0,0,3.88,1.385.28.28,0,0,1,.217.273v5.3a.28.28,0,0,1-.111.224.279.279,0,0,1-.246.044,3.526,3.526,0,0,1-1.766-1.054,3.743,3.743,0,0,1-.793-1.839h-3.348a5.409,5.409,0,0,0,2.081,4.24,8.239,8.239,0,0,0,3.943,1.522.279.279,0,0,1,.241.277v1.759h3.059v-1.708a.281.281,0,0,1,.243-.278,7.882,7.882,0,0,0,4.087-1.619,5.4,5.4,0,0,0,1.94-4.271A4.477,4.477,0,0,0-3463.048-1374.2Zm-7.7-2.769a.277.277,0,0,1-.111.224.279.279,0,0,1-.168.056.262.262,0,0,1-.078-.011,6.377,6.377,0,0,1-1.284-.483A1.939,1.939,0,0,1-3473.5-1379a2.253,2.253,0,0,1,1.1-2.02,5.361,5.361,0,0,1,1.294-.542.284.284,0,0,1,.246.046.279.279,0,0,1,.111.224Zm4.049,9.387a3,3,0,0,1-.669.169.264.264,0,0,1-.042,0,.276.276,0,0,1-.183-.069.282.282,0,0,1-.1-.211v-4.537a.282.282,0,0,1,.114-.226.28.28,0,0,1,.251-.04,7.353,7.353,0,0,1,1.538.638,2.014,2.014,0,0,1,1,1.771A2.528,2.528,0,0,1-3466.7-1367.58Z" transform="translate(3477.014 1387.084)" fill="#fff"/>
        </g>
      </g>
    </g>
  </g>
</svg>
